<svg xmlns="http://www.w3.org/2000/svg" width="641" height="513" viewBox="0 0 641 513"><style>.st0{fill:none;stroke:#000;stroke-miterlimit:10}</style><path d="M496.5 96.5h-60.9l-12.3-32.9c-7-18.6-25-31.1-44.9-31.1H262.7c-19.9 0-38 12.5-44.9 31.1l-12.3 32.9h-60.9c-44.1 0-80 35.9-80 80v224c0 44.1 35.9 80 80 80h352c44.1 0 80-35.9 80-80v-224c-.1-44.1-36-80-80.1-80zm48 304c0 26.5-21.5 48-48 48h-352c-26.5 0-48-21.5-48-48v-224c0-26.5 21.5-48 48-48h83.1l20.1-53.6c2.3-6.2 8.3-10.4 15-10.4h115.7c6.6 0 12.7 4.2 15 10.4l20.1 53.6h83.1c26.5 0 48 21.5 48 48v224z"/><path d="M320.5 176.5c-61.9 0-112 50.1-112 112s50.1 112 112 112 112-50.1 112-112-50.1-112-112-112zm0 192c-44.1 0-80-35.9-80-80s35.9-80 80-80 80 35.9 80 80-35.9 80-80 80z"/></svg>
