<svg xmlns="http://www.w3.org/2000/svg" width="640" height="512" viewBox="0 0 640 512"><path d="M354.8 97c2.7-8.4 7.6-17.4 15-22.3 14.7-9.8 18.7-29.7 8.9-44.4-9.8-14.7-29.7-18.7-44.4-8.9C318.5 32 305.7 48 297.5 67.7c-3.9 9.3-6.7 19.4-8.2 29C121.1 105 64 182.2 64 288c0 112 64 192 256 192s256-80 256-192c0-104.9-56.2-181.8-221.2-191zm-9.7 178.9l48-80c1.5-2.4 4-3.9 6.9-3.9s5.4 1.5 6.9 3.9l48 80c1.5 2.5 1.5 5.5.1 8.1-1.4 2.5-4.1 4.1-7 4.1h-96c-2.9 0-5.5-1.5-7-4.1-1.4-2.6-1.3-5.6.1-8.1zm-160 0l48-80c1.5-2.4 4-3.9 6.9-3.9s5.4 1.5 6.9 3.9l48 80c1.5 2.5 1.5 5.5.1 8.1-1.4 2.5-4.1 4.1-7 4.1h-96c-2.9 0-5.5-1.5-7-4.1-1.4-2.6-1.3-5.6.1-8.1zm310.6 62.3c-8.2 28.8-30.6 53-64.6 70-4.8 2.4-9.8 4.6-15 6.7V392c0-4.4-3.6-8-8-8h-16c-4.4 0-8 3.6-8 8v32.8c-20.2 4.8-41.9 7.2-64 7.2s-43.8-2.5-64-7.2V392c0-4.4-3.6-8-8-8h-16c-4.4 0-8 3.6-8 8v22.8c-5.2-2-10.2-4.3-15-6.7-34-16.9-56.4-41.1-64.6-70-.8-2.9 0-6 2.2-8 1.5-1.4 3.5-2.2 5.5-2.2.9 0 1.8.2 2.7.5 34.2 12.4 81.5 20.4 133.3 22.8V376c0 4.4 3.6 8 8 8h16c4.4 0 8-3.6 8-8v-24c63.9 0 124.2-8.6 165.3-23.5.9-.3 1.8-.5 2.7-.5 2 0 4 .7 5.5 2.2 2 2 2.8 5.1 2 8z"/></svg>
