<svg xmlns="http://www.w3.org/2000/svg" viewBox="0 0 512 512"><path d="M497.9 74.2l-60.1-60.1c-18.7-18.7-49.1-18.7-67.9 0l-46.1 46.1c-4.7 4.7-4.7 12.3 0 17l111 111c4.7 4.7 12.3 4.7 17 0l46.1-46.1c18.8-18.8 18.8-49.2 0-67.9zM412.2 210.8l-111-111c-4.7-4.7-12.3-4.7-17 0L23.8 360.2.6 476.1c-4.2 21 14.3 39.5 35.3 35.3l115.9-23.2 260.4-260.4c4.7-4.7 4.7-12.3 0-17zM65 473l-26-26 14.2-71 82.7 82.7L65 473zm64.9-119.1c-2.7 2.7-6.3 4.1-9.9 4.1s-7.2-1.4-9.9-4.1c-5.5-5.5-5.5-14.3 0-19.8l160-160c5.5-5.5 14.3-5.5 19.8 0s5.5 14.3 0 19.8l-160 160zm208-112l-160 160c-2.7 2.7-6.3 4.1-9.9 4.1s-7.2-1.4-9.9-4.1c-5.5-5.5-5.5-14.3 0-19.8l160-160c5.5-5.5 14.3-5.5 19.8 0s5.5 14.3 0 19.8z"/></svg>
