<svg xmlns="http://www.w3.org/2000/svg" width="640" height="512" viewBox="0 0 640 512"><path d="M416 288c0 17.7-14.3 32-32 32s-32-14.3-32-32c0-3.3.5-6.5 1.4-9.4 2.5 5.6 8.1 9.4 14.6 9.4 8.8 0 16-7.2 16-16 0-6.5-3.9-12.1-9.4-14.6 3-.9 6.1-1.4 9.4-1.4 17.7 0 32 14.3 32 32z"/><path d="M256 256c-3.3 0-6.5.5-9.4 1.4 5.6 2.5 9.4 8.1 9.4 14.6 0 8.8-7.2 16-16 16-6.5 0-12.1-3.9-14.6-9.4-.9 3-1.4 6.1-1.4 9.4 0 17.7 14.3 32 32 32s32-14.3 32-32-14.3-32-32-32zm0 0c-3.3 0-6.5.5-9.4 1.4 5.6 2.5 9.4 8.1 9.4 14.6 0 8.8-7.2 16-16 16-6.5 0-12.1-3.9-14.6-9.4-.9 3-1.4 6.1-1.4 9.4 0 17.7 14.3 32 32 32s32-14.3 32-32-14.3-32-32-32zm256 128h-11.5c22.5-23.5 27.5-47.3 27.5-64 0-35.3-28.7-64-64-64h-12.8l.3-.3c18.9-19.4 28.5-40.8 28.5-63.7 0-35.3-28.7-64-64-64h-34.8c10.8-16 17.6-28.3 17.6-56 0-35.3-47.1-72-78.8-72 0 110.8-119.6 132.4-121.6 133.3-28 11.8-38.4 36.2-38.4 66.7 0 19.3 15.6 37.8 30.7 46.8-20.9 7.7-34.9 12.5-35.2 12.6-29.7 10-42.5 29.3-42.5 60.6 0 21.6 17.6 49.7 36.6 58.3-20.3 4.3-33.1 6.7-33.4 6.8C83.7 391.2 64 415 64 448c0 34.1 31 64 64 64h384c35.3 0 64-28.7 64-64s-28.7-64-64-64zM256 232c30.9 0 56 25.1 56 56s-25.1 56-56 56-56-25.1-56-56 25.1-56 56-56zm166.4 164.8C399 427.9 361.9 448 320 448s-79-20.1-102.4-51.2c-4-5.3-.2-12.8 6.4-12.8h192c6.6 0 10.4 7.5 6.4 12.8zM384 344c-30.9 0-56-25.1-56-56s25.1-56 56-56 56 25.1 56 56-25.1 56-56 56zm-128-24c17.7 0 32-14.3 32-32s-14.3-32-32-32c-3.3 0-6.5.5-9.4 1.4 5.6 2.5 9.4 8.1 9.4 14.6 0 8.8-7.2 16-16 16-6.5 0-12.1-3.9-14.6-9.4-.9 3-1.4 6.1-1.4 9.4 0 17.7 14.3 32 32 32z"/></svg>
