<svg xmlns="http://www.w3.org/2000/svg" width="640" height="512" viewBox="0 0 640 512"><path d="M522.8 224H512V96c0-13.2-7.6-31.6-17-41l-38-38c-9.3-9.3-27.8-17-41-17H152c-13.2 0-24 10.8-24 24v200h-10.8C88 224 64 248 64 277.2v129.9c0 4.9 4 8.9 8.9 8.9H128v72c0 13.2 10.8 24 24 24h336c13.2 0 24-10.8 24-24v-72h55.1c4.9 0 8.9-4 8.9-8.9V277.2c0-29.2-24-53.2-53.2-53.2zM480 480H160v-96h320v96zm0-224H160V32h256v40c0 13.2 10.8 24 24 24h40v160zm48 32c-8.8 0-16-7.2-16-16s7.2-16 16-16 16 7.2 16 16-7.2 16-16 16z"/></svg>
