<svg xmlns="http://www.w3.org/2000/svg" width="640" height="512" viewBox="0 0 640 512"><path d="M320 8C183 8 72 119 72 256s111 248 248 248 248-111 248-248S457 8 320 8zm88 462.7l-53.6-32.1 38.5-82.3 90.2-11.1L497 406c-4.1 4.8-8.4 9.5-12.9 14-21.3 21.3-46.1 38-73.7 49.7-.9.4-1.6.7-2.4 1zm-176 0c-.8-.3-1.5-.6-2.3-.9-27.6-11.7-52.4-28.4-73.7-49.7-4.5-4.5-8.8-9.2-12.9-14l14-60.9 90.1 11.2 38.4 82.3-53.6 32zm-29.9-253l-66.4 62-47-41c1.8-25.2 7.7-49.7 17.6-73 4.7-11 10.1-21.6 16.4-31.6l62.3-5.5 17.1 89.1zM270.9 327l-30.4-93.1 79.5-57.6 79.5 57.5-30.4 93.2h-98.2zM399.5 88.2L320 132l-79.5-44 24.6-57.5c17.8-4.3 36.2-6.5 54.9-6.5 18.7 0 37.1 2.2 54.9 6.5l24.6 57.7zm38.4 129.5l17.3-89.2 62.2 5.6c6.2 10.1 11.7 20.6 16.4 31.7 9.8 23.3 15.7 47.7 17.6 72.9l-47.1 41.1-66.4-62.1z"/></svg>
