<svg xmlns="http://www.w3.org/2000/svg" viewBox="0 0 511.9 512"><path d="M508.1 155.7c13.9-19.1-13.3-46-32.3-31-.2.2-120.7 104-121 104.2-3 2.6-10.7-4.9-8.1-8.1.2-.3 100.9-124.8 101.1-125 14-19.2-12.4-45.6-31.6-31.6-.4.3-124.6 100.7-125 101.1-3.2 2.5-10.6-5.1-8.1-8.1.2-.2 104.3-121 104.1-120.8 15-19-11.6-46.5-30.7-32.6-5 3.5-97.8 68.3-125.6 96.1-41.7 41.7-48.7 92.3-21.5 138.9l-196.6 170c-16.1 13.9-17 38.6-1.9 53.6l38.8 38.8c15 15 39.7 14.1 53.6-2L273 302.5c46.8 27.3 97.5 20.3 139.2-21.4 27.7-27.7 92.4-120.4 95.9-125.4z"/></svg>
