<svg xmlns="http://www.w3.org/2000/svg" viewBox="0 0 512 512"><path d="M500 60h-24c-6.6 0-12 5.4-12 12s5.4 12 12 12h24c6.6 0 12-5.4 12-12s-5.4-12-12-12zM440 0c-6.6 0-12 5.4-12 12v24c0 6.6 5.4 12 12 12s12-5.4 12-12V12c0-6.6-5.4-12-12-12zM423.5 71.5l-52 52L345 97c-9.4-9.4-24.6-9.4-33.9 0l-17.4 17.4C267.5 102.6 238.5 96 208 96 93.1 96 0 189.1 0 304s93.1 208 208 208 208-93.1 208-208c0-30.5-6.6-59.5-18.4-85.6L415 201c9.4-9.4 9.4-24.6 0-33.9l-26.5-26.5 52-52-17-17.1zM144 256c-26.5 0-48-21.5-48-48s21.5-48 48-48 48 21.5 48 48-21.5 48-48 48zM465.5 58.5c3.1 0 6.1-1.2 8.5-3.5l17-17c4.7-4.7 4.7-12.3 0-17-4.7-4.7-12.3-4.7-17 0l-17 17c-4.7 4.7-4.7 12.3 0 17 2.3 2.4 5.4 3.5 8.5 3.5zM406.1 55c2.3 2.3 5.4 3.5 8.5 3.5s6.1-1.2 8.5-3.5c4.7-4.7 4.7-12.3 0-17l-17-17c-4.7-4.7-12.3-4.7-17 0-4.7 4.7-4.7 12.3 0 17l17 17zM473.9 89c-4.7-4.7-12.3-4.7-17 0-4.7 4.7-4.7 12.3 0 17l17 17c2.3 2.3 5.4 3.5 8.5 3.5s6.1-1.2 8.5-3.5c4.7-4.7 4.7-12.3 0-17l-17-17z"/></svg>
