<svg xmlns="http://www.w3.org/2000/svg" viewBox="0 0 576 512"><style>.st0{fill-rule:evenodd;clip-rule:evenodd}</style><path class="st0" d="M576 224c0-20.9-13.4-38.7-32-45.3V44.8C544 20.2 524.5 0 500.7 0 435.7 56 338 128 208 128H48c-26.5 0-48 21.5-48 48v96c0 26.5 21.5 48 48 48h55.3c-19.6 67.5 4.4 120.9 20.9 174.2 25.8 25.7 98.3 25.1 115.7-11.6-29.8-25-55.2-49.1-35.3-83.8-22.3-24.2-10.2-66.7 24.3-78.1 119.5 7.2 210.2 74.4 271.7 127.4 23.8 0 43.3-20.2 43.3-44.8v-134c18.7-6.6 32.1-24.4 32.1-45.3zm-96 126.2c-68.3-48.5-141.8-81.7-224-91.4v-69.6c82.2-9.6 155.7-42.9 224-91.4v252.4z"/></svg>
