<svg xmlns="http://www.w3.org/2000/svg" viewBox="0 0 512 512"><style>.st0{opacity:.5;fill:none}</style><path d="M336 288c0-44.1-35.9-80-80-80-12.7 0-24.8 3-35.5 8.3C236 218.5 248 231.8 248 248c0 17.7-14.3 32-32 32-16.1 0-29.5-11.9-31.7-27.5-5.3 10.7-8.3 22.7-8.3 35.5 0 44.1 35.9 80 80 80s80-35.9 80-80z"/><path d="M488 32H24C10.7 32 0 42.7 0 56v400c0 13.3 10.7 24 24 24h464c13.3 0 24-10.7 24-24V56c0-13.3-10.7-24-24-24zM64 72c0-4.4 3.6-8 8-8h112c4.4 0 8 3.6 8 8v16c0 4.4-3.6 8-8 8H72c-4.4 0-8-3.6-8-8V72zm416 368c0 4.4-3.6 8-8 8H40c-4.4 0-8-3.6-8-8v-16c0-4.4 3.6-8 8-8h432c4.4 0 8 3.6 8 8v16zM144 288c0-61.9 50.1-112 112-112s112 50.1 112 112-50.1 112-112 112-112-50.1-112-112zm336-136c0 4.4-3.6 8-8 8H40c-4.4 0-8-3.6-8-8v-32c0-4.4 3.6-8 8-8h184l29.6-44.4c1.5-2.2 4-3.6 6.7-3.6H472c4.4 0 8 3.6 8 8v80z"/></svg>
