<svg xmlns="http://www.w3.org/2000/svg" viewBox="0 0 640 512"><path d="M279 511.5l-61.1-17.7c-6.3-1.8-10-8.5-8.1-14.8L346.3 8.6c1.8-6.3 8.5-10 14.8-8.1l61.1 17.7c6.3 1.8 10 8.5 8.1 14.8L293.7 503.4c-1.8 6.3-8.4 10-14.7 8.1zM147.9 399.9L3.8 264.8c-5.1-4.7-5.1-12.8 0-17.5l144.1-135.1c4.8-4.5 12.4-4.3 17 .5l43.5 46.4c4.6 4.9 4.3 12.7-.8 17.2L117 256l90.6 79.7c5.1 4.5 5.5 12.3.8 17.2l-43.5 46.4c-4.5 4.9-12.1 5.1-17 .6zM475.1 399.3l-43.5-46.4c-4.6-4.9-4.3-12.7.8-17.2L523 256l-90.6-79.7c-5.1-4.5-5.5-12.3-.8-17.2l43.5-46.4c4.5-4.8 12.1-5.1 17-.5l144.1 135.1c5.1 4.7 5.1 12.8 0 17.5L492.1 399.9c-4.9 4.5-12.5 4.3-17-.6z"/></svg>
