<svg xmlns="http://www.w3.org/2000/svg" viewBox="0 0 576 512"><style>.st0{fill:none}</style><path d="M288 32C128.9 32 0 125.1 0 240c0 47.3 21.9 91 58.7 125.9-9.2 61.7-32.6 76.2-51.9 94.5C3 464-1 467.2.2 472.1v.2c1.2 4.9 6.2 8.2 11.4 7.6 9.6-1 18.9-2.4 27.6-4.3 43.3-9.3 82.3-26.6 114.8-51.5 40 15.2 85.6 23.8 134 23.8 159.1 0 288-93 288-208C576 125.1 447.1 32 288 32zM160 288c-26.5 0-48-21.5-48-48s21.5-48 48-48 48 21.5 48 48-21.5 48-48 48zm128 0c-26.5 0-48-21.5-48-48s21.5-48 48-48 48 21.5 48 48-21.5 48-48 48zm128 0c-26.5 0-48-21.5-48-48s21.5-48 48-48 48 21.5 48 48-21.5 48-48 48z"/></svg>
