<svg xmlns="http://www.w3.org/2000/svg" width="640" height="512" viewBox="0 0 640 512"><path d="M320 32C161 32 32 125.1 32 240c0 47.3 21.9 90.9 58.7 125.9-9.2 61.7-32.6 76.2-51.9 94.6-3.8 3.6-7.8 6.8-6.6 11.7v.2c1.3 4.9 6.2 8.2 11.5 7.7 9.6-1 18.9-2.4 27.6-4.3 43.3-9.3 82.3-26.6 114.8-51.5 40 15.2 85.6 23.8 134 23.8 159 0 288-93 288-208C608 125.1 479 32 320 32zM192 288c-26.5 0-48-21.5-48-48s21.5-48 48-48 48 21.5 48 48-21.5 48-48 48zm128 0c-26.5 0-48-21.5-48-48s21.5-48 48-48 48 21.5 48 48-21.5 48-48 48zm128 0c-26.5 0-48-21.5-48-48s21.5-48 48-48 48 21.5 48 48-21.5 48-48 48z"/></svg>
