<svg xmlns="http://www.w3.org/2000/svg" viewBox="0 0 576 512"><path d="M384.2 87.8L179.3 292.7l-18.8 94.1c-3.4 17.1 11.6 32.1 28.7 28.7l94.1-18.8 204.9-204.9c4.7-4.7 4.7-12.3 0-17l-87-87c-4.7-4.7-12.3-4.7-17 0zM564.6 60.3l-48.8-48.8c-15.2-15.2-39.9-15.2-55.2 0l-36.8 36.8c-4.7 4.7-4.7 12.3 0 17l87 87c4.7 4.7 12.3 4.7 17 0l36.8-36.8c15.2-15.3 15.2-40 0-55.2z"/><path d="M384 346.2V448H64V128h229.8c3.2 0 6.2-1.3 8.5-3.5l40-40c7.6-7.6 2.2-20.5-8.5-20.5H40C17.9 64 0 81.9 0 104v368c0 22.1 17.9 40 40 40h368c22.1 0 40-17.9 40-40V306.2c0-10.7-12.9-16-20.5-8.5l-40 40c-2.2 2.3-3.5 5.3-3.5 8.5z"/></svg>
