<svg xmlns="http://www.w3.org/2000/svg" viewBox="0 0 512 512"><style>.st0{fill:none}</style><path d="M512 116.8c0 22.4-25.1 55.5-49 71.4-42.5 28.3-96.7 67.3-133.6 92.6-17.5 12.1-49.7 39.2-73.4 39.2-23.6 0-55.4-26.8-73.4-39.2-36.8-25.3-91.1-64.3-133.6-92.6-23.9-15.9-49-48.9-49-71.4V103c.5-21.5 18.3-39 40-39h432c21.7 0 39.4 17.4 40 39v13.8z"/><path d="M512 186.8V408c0 22-18 40-40 40H40c-22 0-40-18-40-40V186.8c9.6 11 20.5 20.8 31.3 28 35.1 23.4 141.2 98.1 142.2 98.8 23.9 17.5 52.9 38.4 82.6 38.4 29.7 0 58.6-20.9 82.6-38.4 1-.7 106-74.7 142.2-98.8 10.6-7.2 21.5-17 31.1-28z"/></svg>
