<svg xmlns="http://www.w3.org/2000/svg" width="641" height="513" viewBox="0 0 641 513"><style>.st0{fill:#fff;stroke:#000;stroke-miterlimit:10}</style><path d="M576.5 117.3c0 22.4-25.1 55.5-49 71.4C485 217 430.8 256 393.9 281.3c-17.6 12.1-49.7 39.2-73.4 39.2-23.6 0-55.4-26.8-73.4-39.2C210.3 256 156 217 113.5 188.7c-23.9-15.9-49-48.9-49-71.4v-13.8c.5-21.5 18.3-39 40-39h432c21.7 0 39.4 17.4 40 39v13.8z"/><path d="M576.5 187.3v221.2c0 22-18 40-40 40h-432c-22 0-40-18-40-40V187.3c9.6 11 20.5 20.8 31.3 28 26.3 17.6 58 39.8 86 59.4 17.2 12 52.7 36.8 56.2 39.4 23.9 17.5 52.9 38.4 82.6 38.4 29.7 0 58.6-20.9 82.6-38.4 3.5-2.6 39-27.4 56.1-39.4 28-19.6 59.7-41.9 86-59.5 10.7-7.1 21.6-16.9 31.2-27.9z"/></svg>
