<svg xmlns="http://www.w3.org/2000/svg" viewBox="0 0 576 512"><style>.st0{fill:none}</style><path d="M395.4 420.8c-43.4 21.6-91.9 34.4-140.8 34.4-82.2 0-151.1-40.1-151.1-40.1-16.1 0-35.4 64.9-63.3 64.9-27 0-40.2-24-40.2-38.5 0-33.1 63.6-58.9 63.6-77.3 0 0-12.5-21.2-12.5-59.2 0-101.2 81.3-173.4 172.6-203.3 65.9-21.6 206 3.5 250.7-38.5C492.1 47 500.8 32 527.8 32c36.3 0 48.2 93.2 48.2 120.3 0 110.9-54.5 206.5-180.6 268.5zm-4.5-225.9c-113.8 0-187.1 47.1-261.3 128.2-3.9 4.1-6.1 8.6-6.1 14.3 0 11.1 9.3 20.4 20.6 20.4 5.8 0 10.3-2.2 14.5-6 49.5-44 97.1-116.1 232.4-116.1 11.3 0 20.6-9.2 20.6-20.4-.2-11.2-9.5-20.4-20.7-20.4z"/></svg>
