<svg xmlns="http://www.w3.org/2000/svg" viewBox="0 0 512 512"><path d="M505 119L119 505c-9.4 9.4-24.6 9.4-33.9 0L7 426.9c-9.4-9.4-9.4-24.6 0-33.9L393 7c9.4-9.4 24.6-9.4 33.9 0L505 85.1c9.3 9.4 9.3 24.6 0 33.9zm-50.9-16.9L410 58l-88 88 44.1 44.1 88-88zM211.5 83.8L175 95l-11.2 36.5c-1.2 3.8-6.5 3.8-7.6 0L145 95l-36.5-11.2c-3.8-1.2-3.8-6.5 0-7.6L145 65l11.2-36.5c1.2-3.8 6.5-3.8 7.6 0L175 65l36.5 11.2c3.8 1.1 3.8 6.5 0 7.6zM499.5 243.8l-24.3 7.4-7.4 24.3c-1.2 3.8-6.5 3.8-7.6 0l-7.4-24.3-24.3-7.4c-3.8-1.2-3.8-6.5 0-7.6l24.3-7.4 7.4-24.3c1.2-3.8 6.5-3.8 7.6 0l7.4 24.3 24.3 7.4c3.8 1.1 3.8 6.5 0 7.6zM307.5 51.8l-24.3 7.4-7.4 24.3c-1.2 3.8-6.5 3.8-7.6 0l-7.4-24.3-24.3-7.4c-3.8-1.2-3.8-6.5 0-7.6l24.3-7.4 7.4-24.3c1.2-3.8 6.5-3.8 7.6 0l7.4 24.3 24.3 7.4c3.8 1.1 3.8 6.5 0 7.6zM83.5 51.8l-24.3 7.4-7.4 24.3c-1.2 3.8-6.5 3.8-7.6 0l-7.4-24.3-24.3-7.4c-3.8-1.2-3.8-6.5 0-7.6l24.3-7.4 7.4-24.3c1.2-3.8 6.5-3.8 7.6 0l7.4 24.3 24.3 7.4c3.8 1.1 3.8 6.5 0 7.6z"/></svg>
