<svg xmlns="http://www.w3.org/2000/svg" viewBox="0 0 448 512"><style>.st0{fill:none}</style><path d="M408 480H40c-22.1 0-40-17.9-40-40V72c0-22.1 17.9-40 40-40h368c22.1 0 40 17.9 40 40v368c0 22.1-17.9 40-40 40zm-63-314.9L314.9 135c-9.4-9.4-24.6-9.4-33.9 0l-23.1 23.1c-2.3 2.3-2.3 6.1 0 8.5l55.5 55.5c2.3 2.3 6.1 2.3 8.5 0L345 199c9.3-9.3 9.3-24.5 0-33.9zm-106.9 12.8L107.9 308.1 96.3 366c-2.1 10.5 7.2 19.7 17.7 17.7l57.9-11.6 130.2-130.2c2.3-2.3 2.3-6.1 0-8.5l-55.5-55.5c-2.4-2.3-6.2-2.3-8.5 0z"/></svg>
