<svg xmlns="http://www.w3.org/2000/svg" viewBox="0 0 512 512"><path d="M512 101.7c0-25.2 0-50.4-6.9-82.5-1.3-6.2-6.1-11-12.2-12.3C460.7 0 435.5 0 410.4 0 299.8 0 236.7 63.3 189.5 143.7c-18.4-10.1-39.5-15.8-62-15.7C56.8 128.2 0 186.6 0 257.4V272c0 8.8 7.2 16 16 16h103.2c-5.9 12.8-11.9 25.5-18 37.7-3.1 6.2-1.9 13.6 3 18.5l63.6 63.6c4.9 4.9 12.3 6.1 18.5 3 12.2-6.1 24.9-12 37.7-17.9V496c0 8.8 7.2 16 16 16h16c70.8 0 128.2-57.6 128-128.5-.1-22.1-5.9-42.9-15.9-61C448.4 275.3 512 211.8 512 101.7zM416 136c-22.1 0-40-17.9-40-40s17.9-40 40-40 40 17.9 40 40-17.9 40-40 40z"/></svg>
