<svg xmlns="http://www.w3.org/2000/svg" viewBox="0 0 512 512"><style>.st0{fill:none}.st0,.st1{fill-rule:evenodd;clip-rule:evenodd}</style><path d="M176 250c23.2 0 42-18.8 42-42s-18.8-42-42-42c-4.3 0-8.5.6-12.4 1.9 7.3 3.3 12.4 10.6 12.4 19.1 0 11.6-9.4 21-21 21-8.5 0-15.9-5.1-19.1-12.4-1.2 3.9-1.9 8.1-1.9 12.4 0 23.2 18.8 42 42 42z"/><path class="st1" d="M256 8C119 8 8 119 8 256s111 248 248 248 248-111 248-248S393 8 256 8zm-80 128c39.7 0 72 32.3 72 72s-32.3 72-72 72-72-32.3-72-72 32.3-72 72-72zm206 200c-28.7 38.9-74.5 64-126 64s-97.3-25.1-126-64c-4.9-6.6-.2-16 7.9-16h236.3c8 0 12.7 9.4 7.8 16zm-46-200c39.7 0 72 32.3 72 72s-32.3 72-72 72-72-32.3-72-72 32.3-72 72-72z"/><path d="M336 250c23.2 0 42-18.8 42-42s-18.8-42-42-42c-4.3 0-8.5.6-12.4 1.9 7.3 3.3 12.4 10.6 12.4 19.1 0 11.6-9.4 21-21 21-8.5 0-15.9-5.1-19.1-12.4-1.2 3.9-1.9 8.1-1.9 12.4 0 23.2 18.8 42 42 42z"/></svg>
