<svg xmlns="http://www.w3.org/2000/svg" viewBox="0 0 512 512"><style>.st0{fill-rule:evenodd;clip-rule:evenodd}</style><path d="M344 512c43.4 0 95.8.2 116.6-28.3 8.4-11.5 10.4-25.8 6.1-42.5 16.3-16.3 25.1-46.6 16.4-71.3 17.5-22.3 19.1-53.5 9.3-75.7l.1-.1c11.9-11.4 19.5-29.8 19.4-46.9-.2-28.9-26.2-55.1-59.6-55.1H344c7.3-31 40-56.5 40-102.9C384 8.8 336 0 312 0c-20.2 0-29.5 39.3-33.9 57.8-5.2 21.7-10.6 44.1-25.4 58.9-32.5 32.5-49.5 72.8-89.1 111.8-2.3 2.3-3.6 5.3-3.6 8.5v215.6c0 6.2 4.7 11.3 10.9 11.9 53.6 5.3 93.8 47.5 173.1 47.5z"/><path class="st0" d="M116 224H12c-6.6 0-12 5.4-12 12v232c0 6.6 5.4 12 12 12h104c6.6 0 12-5.4 12-12V236c0-6.6-5.4-12-12-12zM64 448c-8.8 0-16-7.2-16-16s7.2-16 16-16 16 7.2 16 16-7.2 16-16 16z"/></svg>
