<svg xmlns="http://www.w3.org/2000/svg" viewBox="0 0 512 512"><style>.st0,.st1{fill-rule:evenodd;clip-rule:evenodd}.st1{fill:none}</style><path class="st0" d="M256 8C119 8 8 119 8 256s111 248 248 248 248-111 248-248S393 8 256 8zm111.5 320.5l-39 39c-4.7 4.7-12.3 4.7-17 0L256 312l-55.5 55.5c-4.7 4.7-12.3 4.7-17 0l-39-39c-4.7-4.7-4.7-12.3 0-17L200 256l-55.5-55.5c-4.7-4.7-4.7-12.3 0-17l39-39c4.7-4.7 12.3-4.7 17 0L256 200l55.5-55.5c4.7-4.7 12.3-4.7 17 0l39 39c4.7 4.7 4.7 12.3 0 17L312 256l55.5 55.5c4.7 4.7 4.7 12.3 0 17z"/></svg>
