<svg xmlns="http://www.w3.org/2000/svg" width="640" height="512" viewBox="0 0 640 512"><path d="M392 0H248c-3 0-5.8 1.7-7.2 4.4L227.1 32H104c-4.4 0-8 3.6-8 8v48c0 4.4 3.6 8 8 8h432c4.4 0 8-3.6 8-8V40c0-4.4-3.6-8-8-8H412.9L399.2 4.4C397.8 1.7 395 0 392 0zM504 128H136c-4.4 0-8 3.6-8 8v296c0 44.1 35.9 80 80 80h224c44.1 0 80-35.9 80-80V136c0-4.4-3.6-8-8-8zM240 408c0 4.4-3.6 8-8 8h-16c-4.4 0-8-3.6-8-8V200c0-4.4 3.6-8 8-8h16c4.4 0 8 3.6 8 8v208zm96 0c0 4.4-3.6 8-8 8h-16c-4.4 0-8-3.6-8-8V200c0-4.4 3.6-8 8-8h16c4.4 0 8 3.6 8 8v208zm96 0c0 4.4-3.6 8-8 8h-16c-4.4 0-8-3.6-8-8V200c0-4.4 3.6-8 8-8h16c4.4 0 8 3.6 8 8v208z"/></svg>
