<svg xmlns="http://www.w3.org/2000/svg" viewBox="0 0 448 512"><path d="M205.8 15.1c-3.2-20.4-36.6-20.2-39.1.8 0 .3-10.3 138.8-10.3 139.1-.3 3.4-9.6 3.5-10 0 0-.3-14.8-139.4-14.8-139.7-3.2-20.5-35.9-20.5-39.1 0 0 .5-14.7 139.2-14.8 139.7-.4 3.5-9.7 3.4-10 0 0-.3-10.3-139.2-10.3-139-2.5-20.9-36-21.4-39.2-1C17.3 20.3 0 119.4 0 153.8c0 51.5 26.9 85.3 72.5 97.4L56.1 477.7C54.7 496.2 69.4 512 88 512h48c18.6 0 33.3-15.8 31.9-34.4l-16.7-226.4c45.7-12 72.8-45.9 72.8-97.4 0-34.4-17.3-133.4-18.2-138.7zM319.2 0C301.5 0 288 14.4 288 32.1v448c0 17.7 14.3 31.9 32 31.9h48c18.7 0 33.4-16 31.9-34.7l-14.7-175.9C414.9 271.6 448 224 448 152 448 52.5 338.4 0 319.2 0z"/></svg>
